<?xml version="1.0" encoding="UTF-8" standalone="no"?>
<!DOCTYPE svg PUBLIC "-//W3C//DTD SVG 1.1//EN"
 "http://www.w3.org/Graphics/SVG/1.1/DTD/svg11.dtd">
<!-- Generated by graphviz version 12.0.0 (20240704.0754)
 -->
<!-- Title: G Pages: 1 -->
<svg width="351pt" height="698pt"
 viewBox="0.00 0.00 351.00 698.00" xmlns="http://www.w3.org/2000/svg" xmlns:xlink="http://www.w3.org/1999/xlink">
<g id="graph0" class="graph" transform="scale(1 1) rotate(0) translate(4 694)">
<title>G</title>
<polygon fill="white" stroke="none" points="-4,4 -4,-694 347,-694 347,4 -4,4"/>
<!-- langstring_utils_validator -->
<g id="node1" class="node">
<title>langstring_utils_validator</title>
<polygon fill="#e1d789" stroke="black" points="142,-472 88,-472 88,-436 142,-436 142,-472"/>
<text text-anchor="middle" x="115" y="-450.5" font-family="Helvetica,sans-Serif" font-size="10.00" fill="#000000">validator</text>
</g>
<!-- langstring_langstring -->
<g id="node4" class="node">
<title>langstring_langstring</title>
<polygon fill="#89e189" stroke="black" points="225,-363 167,-363 167,-327 225,-327 225,-363"/>
<text text-anchor="middle" x="196" y="-341.5" font-family="Helvetica,sans-Serif" font-size="10.00" fill="#000000">langstring</text>
</g>
<!-- langstring_utils_validator&#45;&gt;langstring_langstring -->
<g id="edge18" class="edge">
<title>langstring_utils_validator&#45;&gt;langstring_langstring</title>
<path fill="none" stroke="#606060" stroke-width="1.1" d="M128.01,-435.81C141,-418.65 161.14,-392.05 176.13,-372.25"/>
<polygon fill="#000000" stroke="#606060" stroke-width="1.1" points="178.77,-374.56 182.01,-364.48 173.19,-370.34 178.77,-374.56"/>
</g>
<!-- langstring_setlangstring -->
<g id="node5" class="node">
<title>langstring_setlangstring</title>
<polygon fill="#89e189" stroke="black" points="302.75,-254 231.25,-254 231.25,-218 302.75,-218 302.75,-254"/>
<text text-anchor="middle" x="267" y="-232.5" font-family="Helvetica,sans-Serif" font-size="10.00" fill="#000000">setlangstring</text>
</g>
<!-- langstring_utils_validator&#45;&gt;langstring_setlangstring -->
<g id="edge20" class="edge">
<title>langstring_utils_validator&#45;&gt;langstring_setlangstring</title>
<path fill="none" stroke="#606060" stroke-width="1.1" d="M142.42,-439.34C169.72,-424.32 210.81,-397.66 234,-363 253.74,-333.5 261.68,-292.81 264.87,-265.74"/>
<polygon fill="#000000" stroke="#606060" stroke-width="1.1" points="268.33,-266.31 265.86,-256 261.36,-265.6 268.33,-266.31"/>
</g>
<!-- langstring_multilangstring -->
<g id="node6" class="node">
<title>langstring_multilangstring</title>
<polygon fill="#89e189" stroke="black" points="168.5,-145 89.5,-145 89.5,-109 168.5,-109 168.5,-145"/>
<text text-anchor="middle" x="129" y="-123.5" font-family="Helvetica,sans-Serif" font-size="10.00" fill="#000000">multilangstring</text>
</g>
<!-- langstring_utils_validator&#45;&gt;langstring_multilangstring -->
<g id="edge19" class="edge">
<title>langstring_utils_validator&#45;&gt;langstring_multilangstring</title>
<path fill="none" stroke="#606060" stroke-width="1.1" d="M104.62,-435.5C93.37,-414.85 77,-379.12 77,-346 77,-346 77,-346 77,-235 77,-205.36 93.34,-175.32 107.7,-154.65"/>
<polygon fill="#000000" stroke="#606060" stroke-width="1.1" points="110.48,-156.79 113.54,-146.64 104.82,-152.67 110.48,-156.79"/>
</g>
<!-- langstring_converter -->
<g id="node7" class="node">
<title>langstring_converter</title>
<polygon fill="#ca89e1" stroke="black" points="241.5,-36 186.5,-36 186.5,0 241.5,0 241.5,-36"/>
<text text-anchor="middle" x="214" y="-14.5" font-family="Helvetica,sans-Serif" font-size="10.00" fill="#000000">converter</text>
</g>
<!-- langstring_utils_validator&#45;&gt;langstring_converter -->
<g id="edge17" class="edge">
<title>langstring_utils_validator&#45;&gt;langstring_converter</title>
<path fill="none" stroke="#606060" stroke-width="1.1" d="M91.9,-435.67C69.22,-416.48 38,-383.3 38,-346 38,-346 38,-346 38,-290 38,-207.32 34,-177.03 81,-109 104.6,-74.84 145.76,-49.96 176.06,-35.13"/>
<polygon fill="#000000" stroke="#606060" stroke-width="1.1" points="177.22,-38.45 184.77,-31.02 174.23,-32.12 177.22,-38.45"/>
</g>
<!-- langstring_controller -->
<g id="node2" class="node">
<title>langstring_controller</title>
<polygon fill="#58bdd6" stroke="black" points="237.88,-581 182.12,-581 182.12,-545 237.88,-545 237.88,-581"/>
<text text-anchor="middle" x="210" y="-559.5" font-family="Helvetica,sans-Serif" font-size="10.00" fill="#000000">controller</text>
</g>
<!-- langstring_controller&#45;&gt;langstring_utils_validator -->
<g id="edge5" class="edge">
<title>langstring_controller&#45;&gt;langstring_utils_validator</title>
<path fill="none" stroke="#606060" stroke-width="1.1" d="M194.74,-544.81C179.36,-527.49 155.46,-500.57 137.83,-480.71"/>
<polygon fill="#000000" stroke="#606060" stroke-width="1.1" points="140.59,-478.55 131.33,-473.39 135.35,-483.2 140.59,-478.55"/>
</g>
<!-- langstring_controller&#45;&gt;langstring_langstring -->
<g id="edge2" class="edge">
<title>langstring_controller&#45;&gt;langstring_langstring</title>
<path fill="none" stroke="#606060" stroke-width="1.1" d="M208.88,-544.69C206.48,-507.64 200.82,-420.35 197.87,-374.8"/>
<polygon fill="#000000" stroke="#606060" stroke-width="1.1" points="201.37,-374.81 197.24,-365.05 194.39,-375.26 201.37,-374.81"/>
</g>
<!-- langstring_controller&#45;&gt;langstring_setlangstring -->
<g id="edge4" class="edge">
<title>langstring_controller&#45;&gt;langstring_setlangstring</title>
<path fill="none" stroke="#606060" stroke-width="1.1" d="M215.72,-544.5C229.35,-501.79 263.47,-388.54 275,-291 275.97,-282.78 275.35,-273.88 274.11,-265.73"/>
<polygon fill="#000000" stroke="#606060" stroke-width="1.1" points="277.58,-265.28 272.27,-256.11 270.71,-266.59 277.58,-265.28"/>
</g>
<!-- langstring_controller&#45;&gt;langstring_multilangstring -->
<g id="edge3" class="edge">
<title>langstring_controller&#45;&gt;langstring_multilangstring</title>
<path fill="none" stroke="#606060" stroke-width="1.1" d="M201.9,-544.63C178.93,-495.21 115,-356.75 115,-346 115,-346 115,-346 115,-235 115,-208.25 119.35,-178.06 123.21,-156.58"/>
<polygon fill="#000000" stroke="#606060" stroke-width="1.1" points="126.61,-157.44 125.01,-146.97 119.73,-156.15 126.61,-157.44"/>
</g>
<!-- langstring_flags -->
<g id="node3" class="node">
<title>langstring_flags</title>
<polygon fill="#58bdd6" stroke="black" points="237,-690 183,-690 183,-654 237,-654 237,-690"/>
<text text-anchor="middle" x="210" y="-668.5" font-family="Helvetica,sans-Serif" font-size="10.00" fill="#000000">flags</text>
</g>
<!-- langstring_flags&#45;&gt;langstring_utils_validator -->
<g id="edge10" class="edge">
<title>langstring_flags&#45;&gt;langstring_utils_validator</title>
<path fill="none" stroke="#606060" stroke-width="1.1" d="M202.39,-653.69C185.99,-616.4 147.21,-528.23 127.28,-482.93"/>
<polygon fill="#000000" stroke="#606060" stroke-width="1.1" points="130.55,-481.66 123.32,-473.92 124.14,-484.48 130.55,-481.66"/>
</g>
<!-- langstring_flags&#45;&gt;langstring_controller -->
<g id="edge6" class="edge">
<title>langstring_flags&#45;&gt;langstring_controller</title>
<path fill="none" stroke="#606060" stroke-width="1.1" d="M210,-653.81C210,-637.35 210,-612.21 210,-592.72"/>
<polygon fill="#000000" stroke="#606060" stroke-width="1.1" points="213.5,-592.81 210,-582.81 206.5,-592.81 213.5,-592.81"/>
</g>
<!-- langstring_flags&#45;&gt;langstring_langstring -->
<g id="edge7" class="edge">
<title>langstring_flags&#45;&gt;langstring_langstring</title>
<path fill="none" stroke="#606060" stroke-width="1.1" d="M237.48,-655.59C265.54,-637.59 305,-604.99 305,-564 305,-564 305,-564 305,-508 305,-451.61 258.97,-400.1 226.73,-370.94"/>
<polygon fill="#000000" stroke="#606060" stroke-width="1.1" points="229.13,-368.38 219.31,-364.42 224.51,-373.64 229.13,-368.38"/>
</g>
<!-- langstring_flags&#45;&gt;langstring_setlangstring -->
<g id="edge9" class="edge">
<title>langstring_flags&#45;&gt;langstring_setlangstring</title>
<path fill="none" stroke="#606060" stroke-width="1.1" d="M237.24,-662.75C276.15,-649.09 343,-617.79 343,-564 343,-564 343,-564 343,-344 343,-311.36 319.2,-281.74 298.24,-261.98"/>
<polygon fill="#000000" stroke="#606060" stroke-width="1.1" points="300.82,-259.6 291.04,-255.51 296.13,-264.8 300.82,-259.6"/>
</g>
<!-- langstring_flags&#45;&gt;langstring_multilangstring -->
<g id="edge8" class="edge">
<title>langstring_flags&#45;&gt;langstring_multilangstring</title>
<path fill="none" stroke="#606060" stroke-width="1.1" d="M182.55,-669.49C125.62,-664.72 0,-645.02 0,-564 0,-564 0,-564 0,-290 0,-230.51 53.9,-180.24 92.02,-152.13"/>
<polygon fill="#000000" stroke="#606060" stroke-width="1.1" points="93.88,-155.1 99.97,-146.43 89.8,-149.41 93.88,-155.1"/>
</g>
<!-- langstring_langstring&#45;&gt;langstring_setlangstring -->
<g id="edge13" class="edge">
<title>langstring_langstring&#45;&gt;langstring_setlangstring</title>
<path fill="none" stroke="#606060" stroke-width="1.1" d="M207.41,-326.81C218.69,-309.81 236.12,-283.54 249.22,-263.79"/>
<polygon fill="#000000" stroke="#606060" stroke-width="1.1" points="252.09,-265.8 254.7,-255.54 246.25,-261.93 252.09,-265.8"/>
</g>
<!-- langstring_langstring&#45;&gt;langstring_multilangstring -->
<g id="edge12" class="edge">
<title>langstring_langstring&#45;&gt;langstring_multilangstring</title>
<path fill="none" stroke="#606060" stroke-width="1.1" d="M189.59,-326.9C185.78,-316.56 180.94,-303.08 177,-291 161.68,-244.04 145.87,-188.78 136.76,-156.17"/>
<polygon fill="#000000" stroke="#606060" stroke-width="1.1" points="140.22,-155.53 134.17,-146.84 133.47,-157.41 140.22,-155.53"/>
</g>
<!-- langstring_langstring&#45;&gt;langstring_converter -->
<g id="edge11" class="edge">
<title>langstring_langstring&#45;&gt;langstring_converter</title>
<path fill="none" stroke="#606060" stroke-width="1.1" d="M196.97,-326.53C199.91,-273.39 208.77,-113.36 212.41,-47.64"/>
<polygon fill="#000000" stroke="#606060" stroke-width="1.1" points="215.9,-48.01 212.96,-37.83 208.91,-47.62 215.9,-48.01"/>
</g>
<!-- langstring_setlangstring&#45;&gt;langstring_multilangstring -->
<g id="edge16" class="edge">
<title>langstring_setlangstring&#45;&gt;langstring_multilangstring</title>
<path fill="none" stroke="#606060" stroke-width="1.1" d="M244.52,-217.57C221.67,-199.85 186.06,-172.25 160.42,-152.36"/>
<polygon fill="#000000" stroke="#606060" stroke-width="1.1" points="162.83,-149.8 152.79,-146.44 158.54,-155.34 162.83,-149.8"/>
</g>
<!-- langstring_setlangstring&#45;&gt;langstring_converter -->
<g id="edge15" class="edge">
<title>langstring_setlangstring&#45;&gt;langstring_converter</title>
<path fill="none" stroke="#606060" stroke-width="1.1" d="M266.46,-217.88C265.07,-187.68 260.18,-123.26 243,-72 240.08,-63.29 235.76,-54.33 231.34,-46.32"/>
<polygon fill="#000000" stroke="#606060" stroke-width="1.1" points="234.48,-44.75 226.43,-37.87 228.43,-48.27 234.48,-44.75"/>
</g>
<!-- langstring_multilangstring&#45;&gt;langstring_converter -->
<g id="edge14" class="edge">
<title>langstring_multilangstring&#45;&gt;langstring_converter</title>
<path fill="none" stroke="#606060" stroke-width="1.1" d="M142.66,-108.81C156.29,-91.65 177.41,-65.05 193.15,-45.25"/>
<polygon fill="#000000" stroke="#606060" stroke-width="1.1" points="195.86,-47.46 199.34,-37.45 190.38,-43.11 195.86,-47.46"/>
</g>
<!-- langcodes -->
<g id="node8" class="node">
<title>langcodes</title>
<polygon fill="#c04040" stroke="black" points="88.12,-581 85.12,-585 64.12,-585 61.12,-581 27.88,-581 27.88,-545 88.12,-545 88.12,-581"/>
<text text-anchor="middle" x="58" y="-559.5" font-family="Helvetica,sans-Serif" font-size="10.00" fill="#ffffff">langcodes</text>
</g>
<!-- langcodes&#45;&gt;langstring_utils_validator -->
<g id="edge1" class="edge">
<title>langcodes&#45;&gt;langstring_utils_validator</title>
<path fill="none" stroke="#606060" stroke-width="1.1" stroke-dasharray="5,2" d="M67.16,-544.81C76.13,-527.96 89.95,-502.02 100.44,-482.34"/>
<polygon fill="#c04040" stroke="#606060" stroke-width="1.1" points="103.47,-484.09 105.08,-473.62 97.29,-480.8 103.47,-484.09"/>
</g>
</g>
</svg>
