<?xml version="1.0" encoding="UTF-8" standalone="no"?>
<!DOCTYPE svg PUBLIC "-//W3C//DTD SVG 1.1//EN"
 "http://www.w3.org/Graphics/SVG/1.1/DTD/svg11.dtd">
<!-- Generated by graphviz version 12.0.0 (20240704.0754)
 -->
<!-- Title: G Pages: 1 -->
<svg width="451pt" height="713pt"
 viewBox="0.00 0.00 451.42 712.51" xmlns="http://www.w3.org/2000/svg" xmlns:xlink="http://www.w3.org/1999/xlink">
<g id="graph0" class="graph" transform="scale(1 1) rotate(0) translate(4 708.51)">
<title>G</title><style>.edge>path:hover{stroke-width:8}</style>
<polygon fill="white" stroke="none" points="-4,4 -4,-708.51 447.42,-708.51 447.42,4 -4,4"/>
<!-- langstring -->
<g id="node1" class="node">
<title>langstring</title><style>.edge>path:hover{stroke-width:8}</style>
<ellipse fill="#3d8f8f" stroke="black" cx="156" cy="-18" rx="34.88" ry="18"/>
<text text-anchor="middle" x="156" y="-14.5" font-family="Helvetica,sans-Serif" font-size="10.00" fill="#ffffff">langstring</text>
</g>
<!-- langstring_controller -->
<g id="node2" class="node">
<title>langstring_controller</title><style>.edge>path:hover{stroke-width:8}</style>
<ellipse fill="#0bdfdf" stroke="black" cx="242" cy="-533.25" rx="33.52" ry="18"/>
<text text-anchor="middle" x="242" y="-529.75" font-family="Helvetica,sans-Serif" font-size="10.00" fill="#000000">controller</text>
</g>
<!-- langstring_controller&#45;&gt;langstring -->
<g id="edge2" class="edge">
<title>langstring_controller&#45;&gt;langstring</title><style>.edge>path:hover{stroke-width:8}</style>
<path fill="none" stroke="black" d="M211.35,-525.8C146.23,-510.09 0,-463.42 0,-361 0,-361 0,-361 0,-161 0,-97.29 72.03,-54.6 118.2,-33.78"/>
<polygon fill="#0bdfdf" stroke="black" points="119.31,-37.11 127.08,-29.91 116.52,-30.69 119.31,-37.11"/>
</g>
<!-- langstring_langstring -->
<g id="node5" class="node">
<title>langstring_langstring</title><style>.edge>path:hover{stroke-width:8}</style>
<ellipse fill="#16caca" stroke="black" cx="227" cy="-306" rx="34.88" ry="18"/>
<text text-anchor="middle" x="227" y="-302.5" font-family="Helvetica,sans-Serif" font-size="10.00" fill="#000000">langstring</text>
</g>
<!-- langstring_controller&#45;&gt;langstring_langstring -->
<g id="edge3" class="edge">
<title>langstring_controller&#45;&gt;langstring_langstring</title><style>.edge>path:hover{stroke-width:8}</style>
<path fill="none" stroke="black" d="M216,-418.63C208.01,-394.15 219.52,-386.63 222,-361"/>
</g>
<!-- langstring_multilangstring -->
<g id="node6" class="node">
<title>langstring_multilangstring</title><style>.edge>path:hover{stroke-width:8}</style>
<ellipse fill="#28a3a3" stroke="black" cx="114" cy="-162" rx="47.51" ry="18"/>
<text text-anchor="middle" x="114" y="-158.5" font-family="Helvetica,sans-Serif" font-size="10.00" fill="#ffffff">multilangstring</text>
</g>
<!-- langstring_controller&#45;&gt;langstring_multilangstring -->
<g id="edge4" class="edge">
<title>langstring_controller&#45;&gt;langstring_multilangstring</title><style>.edge>path:hover{stroke-width:8}</style>
<path fill="none" stroke="black" d="M242.11,-515.07C242.15,-504.7 242.15,-491.22 242,-479.25"/>
<path fill="none" stroke="black" d="M242,-478.25C241.64,-450.16 224.71,-447.34 216,-420.63"/>
<path fill="none" stroke="black" d="M216,-418.63C188.34,-333.86 146.81,-236.84 126.32,-190.48"/>
<polygon fill="#0bdfdf" stroke="black" points="129.58,-189.18 122.32,-181.46 123.18,-192.02 129.58,-189.18"/>
</g>
<!-- langstring_setlangstring -->
<g id="node7" class="node">
<title>langstring_setlangstring</title><style>.edge>path:hover{stroke-width:8}</style>
<ellipse fill="#20b6b6" stroke="black" cx="259" cy="-234" rx="43" ry="18"/>
<text text-anchor="middle" x="259" y="-230.5" font-family="Helvetica,sans-Serif" font-size="10.00" fill="#000000">setlangstring</text>
</g>
<!-- langstring_controller&#45;&gt;langstring_setlangstring -->
<g id="edge5" class="edge">
<title>langstring_controller&#45;&gt;langstring_setlangstring</title><style>.edge>path:hover{stroke-width:8}</style>
<path fill="none" stroke="black" d="M292,-305C284.19,-291.33 276.61,-275.51 270.69,-262.37"/>
<polygon fill="#0bdfdf" stroke="black" points="274,-261.18 266.76,-253.45 267.59,-264.01 274,-261.18"/>
<path fill="none" stroke="black" d="M242,-478.25C249.93,-399.36 331.35,-375.84 292,-307"/>
</g>
<!-- langstring_utils_validator -->
<g id="node10" class="node">
<title>langstring_utils_validator</title><style>.edge>path:hover{stroke-width:8}</style>
<ellipse fill="#16caca" stroke="black" cx="394" cy="-419.63" rx="36.24" ry="22.63"/>
<text text-anchor="middle" x="394" y="-422.13" font-family="Helvetica,sans-Serif" font-size="10.00" fill="#000000">utils.</text>
<text text-anchor="middle" x="394" y="-410.13" font-family="Helvetica,sans-Serif" font-size="10.00" fill="#000000">validator</text>
</g>
<!-- langstring_controller&#45;&gt;langstring_utils_validator -->
<g id="edge6" class="edge">
<title>langstring_controller&#45;&gt;langstring_utils_validator</title><style>.edge>path:hover{stroke-width:8}</style>
<path fill="none" stroke="black" d="M261.25,-518.12C286.59,-499.51 331.48,-466.54 361.97,-444.15"/>
<polygon fill="#0bdfdf" stroke="black" points="363.73,-447.2 369.72,-438.46 359.59,-441.56 363.73,-447.2"/>
</g>
<!-- langstring_converter -->
<g id="node3" class="node">
<title>langstring_converter</title><style>.edge>path:hover{stroke-width:8}</style>
<ellipse fill="#339999" stroke="black" cx="156" cy="-90" rx="33.07" ry="18"/>
<text text-anchor="middle" x="156" y="-86.5" font-family="Helvetica,sans-Serif" font-size="10.00" fill="#ffffff">converter</text>
</g>
<!-- langstring_converter&#45;&gt;langstring -->
<g id="edge7" class="edge">
<title>langstring_converter&#45;&gt;langstring</title><style>.edge>path:hover{stroke-width:8}</style>
<path fill="none" stroke="black" d="M156,-71.7C156,-64.41 156,-55.73 156,-47.54"/>
<polygon fill="#339999" stroke="black" points="159.5,-47.62 156,-37.62 152.5,-47.62 159.5,-47.62"/>
</g>
<!-- langstring_flags -->
<g id="node4" class="node">
<title>langstring_flags</title><style>.edge>path:hover{stroke-width:8}</style>
<ellipse fill="#10f9f9" stroke="black" cx="297" cy="-605.25" rx="27" ry="18"/>
<text text-anchor="middle" x="297" y="-601.75" font-family="Helvetica,sans-Serif" font-size="10.00" fill="#000000">flags</text>
</g>
<!-- langstring_flags&#45;&gt;langstring -->
<g id="edge8" class="edge">
<title>langstring_flags&#45;&gt;langstring</title><style>.edge>path:hover{stroke-width:8}</style>
<path fill="none" stroke="black" d="M356,-532.25C381.42,-484.14 419.2,-492.94 439,-442.25 446.32,-423.52 442.06,-416.88 439,-397 426.18,-313.64 423.89,-289.2 382,-216 360.59,-178.58 347.39,-174.58 317,-144 292.38,-119.23 275.28,-121.89 259,-91"/>
</g>
<!-- langstring_flags&#45;&gt;langstring_controller -->
<g id="edge9" class="edge">
<title>langstring_flags&#45;&gt;langstring_controller</title><style>.edge>path:hover{stroke-width:8}</style>
<path fill="none" stroke="black" d="M284.79,-588.72C277.98,-580.05 269.34,-569.05 261.6,-559.2"/>
<polygon fill="#10f9f9" stroke="black" points="264.42,-557.12 255.49,-551.42 258.91,-561.45 264.42,-557.12"/>
</g>
<!-- langstring_flags&#45;&gt;langstring_langstring -->
<g id="edge10" class="edge">
<title>langstring_flags&#45;&gt;langstring_langstring</title><style>.edge>path:hover{stroke-width:8}</style>
<path fill="none" stroke="black" d="M356,-532.25C372.26,-486.75 217.35,-409.1 222,-361"/>
<path fill="none" stroke="black" d="M312.19,-590.08C325.54,-576.83 344.57,-555.9 356,-534.25"/>
</g>
<!-- langstring_flags&#45;&gt;langstring_multilangstring -->
<g id="edge11" class="edge">
<title>langstring_flags&#45;&gt;langstring_multilangstring</title><style>.edge>path:hover{stroke-width:8}</style>
<path fill="none" stroke="black" d="M330,-360C312.41,-297.89 353.55,-264.55 311,-216 292.45,-194.83 220.96,-179.51 169.45,-170.94"/>
<polygon fill="#10f9f9" stroke="black" points="170.06,-167.5 159.63,-169.36 168.94,-174.41 170.06,-167.5"/>
</g>
<!-- langstring_flags&#45;&gt;langstring_setlangstring -->
<g id="edge12" class="edge">
<title>langstring_flags&#45;&gt;langstring_setlangstring</title><style>.edge>path:hover{stroke-width:8}</style>
<path fill="none" stroke="black" d="M330,-360C325.16,-331.42 306.74,-331.96 292,-307"/>
<path fill="none" stroke="black" d="M356,-478.25C356.34,-471.59 331.11,-367.58 330,-361"/>
<path fill="none" stroke="black" d="M356,-532.25C367,-511.43 353.55,-502.68 356,-479.25"/>
</g>
<!-- langstring_flags&#45;&gt;langstring_utils_validator -->
<g id="edge13" class="edge">
<title>langstring_flags&#45;&gt;langstring_utils_validator</title><style>.edge>path:hover{stroke-width:8}</style>
<path fill="none" stroke="black" d="M356,-478.25C356.55,-467.44 361.44,-457.09 367.54,-448.21"/>
<polygon fill="#10f9f9" stroke="black" points="370.23,-450.46 373.57,-440.41 364.68,-446.18 370.23,-450.46"/>
</g>
<!-- langstring_langstring&#45;&gt;langstring -->
<g id="edge14" class="edge">
<title>langstring_langstring&#45;&gt;langstring</title><style>.edge>path:hover{stroke-width:8}</style>
<path fill="none" stroke="black" d="M259,-161C266.06,-130.7 273.5,-118.52 259,-91"/>
<path fill="none" stroke="black" d="M188,-233C164.6,-195.37 248.94,-206.16 259,-163"/>
</g>
<!-- langstring_langstring&#45;&gt;langstring_converter -->
<g id="edge15" class="edge">
<title>langstring_langstring&#45;&gt;langstring_converter</title><style>.edge>path:hover{stroke-width:8}</style>
<path fill="none" stroke="black" d="M218.3,-288.33C210.67,-273.99 199.09,-252.84 188,-235"/>
<path fill="none" stroke="black" d="M188,-233C149.15,-170.53 29.95,-236.13 38,-163"/>
</g>
<!-- langstring_langstring&#45;&gt;langstring_multilangstring -->
<g id="edge16" class="edge">
<title>langstring_langstring&#45;&gt;langstring_multilangstring</title><style>.edge>path:hover{stroke-width:8}</style>
<path fill="none" stroke="black" d="M188,-233C176.52,-214.55 159.01,-197.68 143.91,-185.13"/>
<polygon fill="#16caca" stroke="black" points="146.52,-182.74 136.54,-179.21 142.14,-188.2 146.52,-182.74"/>
</g>
<!-- langstring_langstring&#45;&gt;langstring_setlangstring -->
<g id="edge17" class="edge">
<title>langstring_langstring&#45;&gt;langstring_setlangstring</title><style>.edge>path:hover{stroke-width:8}</style>
<path fill="none" stroke="black" d="M234.75,-288.05C238.32,-280.23 242.66,-270.75 246.67,-261.98"/>
<polygon fill="#16caca" stroke="black" points="249.72,-263.72 250.7,-253.17 243.35,-260.81 249.72,-263.72"/>
</g>
<!-- langstring_multilangstring&#45;&gt;langstring -->
<g id="edge18" class="edge">
<title>langstring_multilangstring&#45;&gt;langstring</title><style>.edge>path:hover{stroke-width:8}</style>
<path fill="none" stroke="black" d="M160.04,-156.78C210.36,-150.01 281.09,-132.92 259,-91"/>
<path fill="none" stroke="black" d="M259,-89C245.36,-63.12 217.38,-45.05 194.01,-33.76"/>
<polygon fill="#28a3a3" stroke="black" points="195.6,-30.63 185.05,-29.67 192.7,-37 195.6,-30.63"/>
</g>
<!-- langstring_multilangstring&#45;&gt;langstring_converter -->
<g id="edge19" class="edge">
<title>langstring_multilangstring&#45;&gt;langstring_converter</title><style>.edge>path:hover{stroke-width:8}</style>
<path fill="none" stroke="black" d="M124.17,-144.05C129.04,-135.94 134.97,-126.04 140.4,-117.01"/>
<polygon fill="#28a3a3" stroke="black" points="143.29,-118.98 145.44,-108.6 137.29,-115.38 143.29,-118.98"/>
</g>
<!-- langstring_setlangstring&#45;&gt;langstring -->
<g id="edge20" class="edge">
<title>langstring_setlangstring&#45;&gt;langstring</title><style>.edge>path:hover{stroke-width:8}</style>
<path fill="none" stroke="black" d="M256.85,-215.78C255.56,-201.45 254.89,-180.63 259,-163"/>
</g>
<!-- langstring_setlangstring&#45;&gt;langstring_converter -->
<g id="edge21" class="edge">
<title>langstring_setlangstring&#45;&gt;langstring_converter</title><style>.edge>path:hover{stroke-width:8}</style>
<path fill="none" stroke="black" d="M246.98,-216.43C229.06,-191.72 195.18,-145.01 174.2,-116.09"/>
<polygon fill="#20b6b6" stroke="black" points="177.22,-114.29 168.51,-108.25 171.55,-118.4 177.22,-114.29"/>
</g>
<!-- langstring_setlangstring&#45;&gt;langstring_multilangstring -->
<g id="edge22" class="edge">
<title>langstring_setlangstring&#45;&gt;langstring_multilangstring</title><style>.edge>path:hover{stroke-width:8}</style>
<path fill="none" stroke="black" d="M231.73,-219.83C209.47,-209.09 177.76,-193.78 152.85,-181.75"/>
<polygon fill="#20b6b6" stroke="black" points="154.53,-178.68 144,-177.48 151.49,-184.98 154.53,-178.68"/>
</g>
<!-- langstring_utils -->
<g id="node8" class="node">
<title>langstring_utils</title><style>.edge>path:hover{stroke-width:8}</style>
<ellipse fill="#16f3f3" stroke="black" cx="183" cy="-605.25" rx="27" ry="18"/>
<text text-anchor="middle" x="183" y="-601.75" font-family="Helvetica,sans-Serif" font-size="10.00" fill="#000000">utils</text>
</g>
<!-- langstring_utils&#45;&gt;langstring_controller -->
<g id="edge23" class="edge">
<title>langstring_utils&#45;&gt;langstring_controller</title><style>.edge>path:hover{stroke-width:8}</style>
<path fill="none" stroke="black" d="M195.8,-589.07C203.35,-580.11 213.08,-568.57 221.65,-558.39"/>
<polygon fill="#16f3f3" stroke="black" points="224.07,-560.96 227.84,-551.06 218.72,-556.45 224.07,-560.96"/>
</g>
<!-- langstring_utils&#45;&gt;langstring_converter -->
<g id="edge24" class="edge">
<title>langstring_utils&#45;&gt;langstring_converter</title><style>.edge>path:hover{stroke-width:8}</style>
<path fill="none" stroke="black" d="M146,-360C120.09,-308.59 114.67,-292.51 112,-235"/>
<path fill="none" stroke="black" d="M112,-233C98,-189.95 33.04,-208 38,-163"/>
<path fill="none" stroke="black" d="M178,-418.63C179.48,-389.37 154.61,-389 146,-361"/>
<path fill="none" stroke="black" d="M181.64,-587.03C179.27,-554.49 174.91,-481.78 178,-420.63"/>
</g>
<!-- langstring_utils&#45;&gt;langstring_langstring -->
<g id="edge25" class="edge">
<title>langstring_utils&#45;&gt;langstring_langstring</title><style>.edge>path:hover{stroke-width:8}</style>
<path fill="none" stroke="black" d="M178,-418.63C179.63,-386.44 218.9,-393.07 222,-361"/>
<path fill="none" stroke="black" d="M222,-360C222.77,-352.06 223.59,-343.45 224.33,-335.52"/>
<polygon fill="#16f3f3" stroke="black" points="227.81,-335.98 225.26,-325.69 220.84,-335.32 227.81,-335.98"/>
</g>
<!-- langstring_utils&#45;&gt;langstring_multilangstring -->
<g id="edge26" class="edge">
<title>langstring_utils&#45;&gt;langstring_multilangstring</title><style>.edge>path:hover{stroke-width:8}</style>
<path fill="none" stroke="black" d="M112,-233C111.37,-219.38 111.67,-204.26 112.22,-191.56"/>
<polygon fill="#16f3f3" stroke="black" points="115.7,-191.94 112.71,-181.78 108.71,-191.59 115.7,-191.94"/>
</g>
<!-- langstring_utils&#45;&gt;langstring_setlangstring -->
<g id="edge27" class="edge">
<title>langstring_utils&#45;&gt;langstring_setlangstring</title><style>.edge>path:hover{stroke-width:8}</style>
<path fill="none" stroke="black" d="M146,-360C124.29,-315.68 180.27,-275.49 220.97,-253.23"/>
<polygon fill="#16f3f3" stroke="black" points="222.39,-256.44 229.59,-248.67 219.12,-250.25 222.39,-256.44"/>
</g>
<!-- langstring_utils_non_instantiable -->
<g id="node9" class="node">
<title>langstring_utils_non_instantiable</title><style>.edge>path:hover{stroke-width:8}</style>
<ellipse fill="#2fdbdb" stroke="black" cx="297" cy="-681.88" rx="61.16" ry="22.63"/>
<text text-anchor="middle" x="297" y="-684.38" font-family="Helvetica,sans-Serif" font-size="10.00" fill="#000000">utils.</text>
<text text-anchor="middle" x="297" y="-672.38" font-family="Helvetica,sans-Serif" font-size="10.00" fill="#000000">non_instantiable</text>
</g>
<!-- langstring_utils_non_instantiable&#45;&gt;langstring_controller -->
<g id="edge28" class="edge">
<title>langstring_utils_non_instantiable&#45;&gt;langstring_controller</title><style>.edge>path:hover{stroke-width:8}</style>
<path fill="none" stroke="black" d="M281.26,-659.68C274.14,-649.19 266.18,-636.05 261,-623.25 253.15,-603.86 248.34,-580.71 245.52,-562.88"/>
<polygon fill="#2fdbdb" stroke="black" points="248.99,-562.4 244.09,-553 242.06,-563.4 248.99,-562.4"/>
</g>
<!-- langstring_utils_non_instantiable&#45;&gt;langstring_converter -->
<g id="edge29" class="edge">
<title>langstring_utils_non_instantiable&#45;&gt;langstring_converter</title><style>.edge>path:hover{stroke-width:8}</style>
<path fill="none" stroke="black" d="M239.2,-673.9C162.86,-661.09 38,-626.1 38,-534.25 38,-534.25 38,-534.25 38,-305 38,-241.89 31.09,-225.73 38,-163"/>
<path fill="none" stroke="black" d="M38,-161C41.96,-125.75 81.26,-107.82 113.43,-98.99"/>
<polygon fill="#2fdbdb" stroke="black" points="114.12,-102.42 122.97,-96.6 112.42,-95.63 114.12,-102.42"/>
</g>
<!-- langstring_utils_non_instantiable&#45;&gt;langstring_utils_validator -->
<g id="edge30" class="edge">
<title>langstring_utils_non_instantiable&#45;&gt;langstring_utils_validator</title><style>.edge>path:hover{stroke-width:8}</style>
<path fill="none" stroke="black" d="M394,-532.25C396.35,-506.03 396.2,-476.21 395.55,-453.99"/>
<polygon fill="#2fdbdb" stroke="black" points="399.05,-453.88 395.2,-444.01 392.05,-454.13 399.05,-453.88"/>
<path fill="none" stroke="black" d="M314.6,-659.79C341.8,-626.41 391.22,-562.35 394,-534.25"/>
</g>
<!-- langstring_utils_validator&#45;&gt;langstring_converter -->
<g id="edge31" class="edge">
<title>langstring_utils_validator&#45;&gt;langstring_converter</title><style>.edge>path:hover{stroke-width:8}</style>
<path fill="none" stroke="black" d="M368,-233C331.17,-164.43 245.02,-123.09 194.61,-103.91"/>
<polygon fill="#16caca" stroke="black" points="195.84,-100.63 185.24,-100.45 193.42,-107.2 195.84,-100.63"/>
</g>
<!-- langstring_utils_validator&#45;&gt;langstring_langstring -->
<g id="edge32" class="edge">
<title>langstring_utils_validator&#45;&gt;langstring_langstring</title><style>.edge>path:hover{stroke-width:8}</style>
<path fill="none" stroke="black" d="M368,-360C364.64,-355.75 306.49,-334.77 265.93,-320.52"/>
<polygon fill="#16caca" stroke="black" points="267.29,-317.29 256.7,-317.29 264.98,-323.9 267.29,-317.29"/>
<path fill="none" stroke="black" d="M387.13,-396.97C382.81,-385.52 376.45,-371.67 368,-361"/>
</g>
<!-- langstring_utils_validator&#45;&gt;langstring_multilangstring -->
<g id="edge33" class="edge">
<title>langstring_utils_validator&#45;&gt;langstring_multilangstring</title><style>.edge>path:hover{stroke-width:8}</style>
<path fill="none" stroke="black" d="M368,-233C348.07,-198.79 238.95,-178.84 170.37,-169.5"/>
<polygon fill="#16caca" stroke="black" points="171.19,-166.08 160.82,-168.24 170.27,-173.02 171.19,-166.08"/>
<path fill="none" stroke="black" d="M368,-360C333.51,-316.44 395.97,-283 368,-235"/>
</g>
<!-- langstring_utils_validator&#45;&gt;langstring_setlangstring -->
<g id="edge34" class="edge">
<title>langstring_utils_validator&#45;&gt;langstring_setlangstring</title><style>.edge>path:hover{stroke-width:8}</style>
<path fill="none" stroke="black" d="M368,-360C342.44,-327.71 312.44,-342.75 292,-307"/>
</g>
<!-- langcodes -->
<g id="node11" class="node">
<title>langcodes</title><style>.edge>path:hover{stroke-width:8}</style>
<polygon fill="#c04040" stroke="black" points="440.12,-623.25 437.12,-627.25 416.12,-627.25 413.12,-623.25 379.88,-623.25 379.88,-587.25 440.12,-587.25 440.12,-623.25"/>
<text text-anchor="middle" x="410" y="-601.75" font-family="Helvetica,sans-Serif" font-size="10.00" fill="#ffffff">langcodes</text>
</g>
<!-- langcodes&#45;&gt;langstring_utils_validator -->
<g id="edge1" class="edge">
<title>langcodes&#45;&gt;langstring_utils_validator</title><style>.edge>path:hover{stroke-width:8}</style>
<path fill="none" stroke="black" d="M402.88,-586.92C397.88,-572.88 392.37,-552.51 394,-534.25"/>
</g>
</g>
</svg>
